<svg xmlns="http://www.w3.org/2000/svg" width="64.001" height="64" viewBox="0 0 64.001 64">
  <g id="preffered_icon4" opacity="0.7">
    <circle id="Ellipse_1" data-name="Ellipse 1" cx="2" cy="2" r="2" transform="translate(21.998 20.998)"/>
    <path id="Path_34" data-name="Path 34" d="M42.138,113.92a1.207,1.207,0,0,0-.884-.394H27.5v-2.691h3.75a1.3,1.3,0,0,0,1.25-1.345V98.727a1.3,1.3,0,0,0-1.25-1.345H27.5V93.345A1.3,1.3,0,0,0,26.253,92h-5A1.3,1.3,0,0,0,20,93.345v4.036H6.251a1.207,1.207,0,0,0-.884.394l-5,5.381a1.419,1.419,0,0,0,0,1.9l5,5.381a1.207,1.207,0,0,0,.884.394H20v2.691h-3.75A1.3,1.3,0,0,0,15,114.871v10.763a1.3,1.3,0,0,0,1.25,1.345H20v18.835H11.251a1.349,1.349,0,0,0,0,2.691h25a1.349,1.349,0,0,0,0-2.691H27.5V126.979H41.254a1.207,1.207,0,0,0,.884-.394l5-5.381a1.419,1.419,0,0,0,0-1.9ZM22.5,94.691H25v2.691H22.5ZM3.018,104.108l3.75-4.036H30v8.072H6.769ZM22.5,110.835H25v2.691H22.5ZM25,145.814H22.5V126.979H25Zm15.734-21.526H17.5v-8.072H40.736l3.75,4.036Z" transform="translate(0 -84.505)"/>
    <ellipse id="Ellipse_2" data-name="Ellipse 2" cx="2" cy="1" rx="2" ry="1" transform="translate(21.998 36.996)"/>
    <path id="Path_35" data-name="Path 35" d="M348.251,76.251l2.5,6.251L354.5,70,342,73.75Z" transform="translate(-299.252 -61.249)"/>
    <path id="Path_36" data-name="Path 36" d="M305.751,0A13.767,13.767,0,0,0,292,13.751V27.5a1.25,1.25,0,0,0,1.979,1.015l4.4-3.158A13.752,13.752,0,1,0,305.751,0Zm0,25a11.154,11.154,0,0,1-6.65-2.176,1.25,1.25,0,0,0-1.469-.008L294.5,25.066V13.751A11.251,11.251,0,1,1,305.751,25Z" transform="translate(-255.502 0)"/>
  </g>
</svg>
