<svg xmlns="http://www.w3.org/2000/svg" width="64" height="64" viewBox="0 0 64 64">
  <g id="preffered_icon2" transform="translate(0 0.001)" opacity="0.7">
    <path id="Path_22" data-name="Path 22" d="M62.933,38.4H56.707l-5.768-1.92-1.873-4.685V28.266a4.788,4.788,0,0,0-4.274-4.746c0-.146.007-.293.007-.439V7.466a1.066,1.066,0,0,0-.76-1.022L22.706.044a1.066,1.066,0,0,0-.612,0L.76,6.444A1.067,1.067,0,0,0,0,7.466V23.081c0,.495.033.983.051,1.475.027.72.067,1.436.131,2.147.011.121.026.235.037.355a39.4,39.4,0,0,0,21.7,31.5,1.067,1.067,0,0,0,.954,0,39.919,39.919,0,0,0,4.61-2.716,4.3,4.3,0,0,0,1.245,1.148A4.266,4.266,0,0,0,32,64H50.133a1.069,1.069,0,0,0,.592-.179l6.128-4.088h6.08A1.067,1.067,0,0,0,64,58.666v-19.2A1.067,1.067,0,0,0,62.933,38.4ZM39.847,33.159l1.244,3.107h-6.2a27.657,27.657,0,0,0,3.5-13.284L42.666,21.7v1.381c0,.228-.007.455-.011.684a4.792,4.792,0,0,0-3.189,4.5v2.911a5.324,5.324,0,0,0,.381,1.982ZM24.533,40.533a4.246,4.246,0,0,0,1.173,2.926c-.4.288-.784.586-1.193.853L22.4,45.664l-2.11-1.356A25.5,25.5,0,0,1,10.06,31.482l26.176-7.853a25.519,25.519,0,0,1-3.83,12.637H28.8a4.267,4.267,0,0,0-4.267,4.267ZM2.712,29.586c-.008-.054-.018-.107-.027-.158l4.239-1.268c.126.64.278,1.28.449,1.905l-4.3,1.291c-.141-.612-.257-1.2-.361-1.769ZM2.221,25.3,6.44,24.035c.03.669.079,1.333.156,1.992L2.386,27.29c-.01-.1-.019-.191-.03-.287-.054-.55-.1-1.108-.135-1.7ZM36.267,12.859,8.533,21.179V13.551l13.9-4.965,13.83,3.951Zm0,2.227v2.04L8.679,25.4q-.1-.994-.126-2Zm6.4,2.347v2.039L38.4,20.753v-2.04Zm0-2.228L38.4,16.486v-2.04l4.267-1.28ZM8.977,27.539l17.357-5.206,9.933-2.98v2.04L9.417,29.448c-.169-.629-.319-1.264-.44-1.908ZM2.133,8.26,22.4,2.18,42.667,8.26v2.679L38.4,12.219v-.486a1.066,1.066,0,0,0-.773-1.025L22.693,6.441a1.055,1.055,0,0,0-.652.02L7.108,11.795a1.066,1.066,0,0,0-.708,1v9.02L2.133,23.1ZM22.4,56.4A37.291,37.291,0,0,1,3.569,33.428L8.014,32.1A27.619,27.619,0,0,0,19.136,46.1l2.687,1.727a1.067,1.067,0,0,0,1.154,0L25.664,46.1l.028-.018a4.217,4.217,0,0,0,1.977,4.5,4.117,4.117,0,0,0-.972,3.188A37.542,37.542,0,0,1,22.4,56.4Zm27.414,5.464H32a2.126,2.126,0,0,1-.177-4.244,1.089,1.089,0,0,0,.976-1.131,1.066,1.066,0,0,0-1.067-1.025h-.8a2.133,2.133,0,1,1,0-4.267,1.067,1.067,0,0,0,0-2.133H29.867a2.133,2.133,0,1,1,0-4.267,1.067,1.067,0,0,0,0-2.133H28.8a2.133,2.133,0,1,1,0-4.267H42.667a1.067,1.067,0,0,0,.991-1.464l-1.829-4.569a3.176,3.176,0,0,1-.229-1.19V28.266a2.667,2.667,0,1,1,5.333,0V32a1.09,1.09,0,0,0,.076.4l2.133,5.333a1.076,1.076,0,0,0,.654.616l5.67,1.89V58.1ZM61.867,57.6H57.6V40.533h4.267Zm0,0" transform="translate(0)"/>
    <path id="Path_23" data-name="Path 23" d="M411.489,102.719l-1.466,1.566a16.021,16.021,0,0,1,1.378,1.462l1.649-1.371A18.242,18.242,0,0,0,411.489,102.719Zm0,0" transform="translate(-355.402 -89.027)"/>
    <path id="Path_24" data-name="Path 24" d="M449.9,193.921q0-.631-.043-1.249l-2.139.145q.037.547.038,1.1,0,.455-.026.905l2.144.123Q449.9,194.438,449.9,193.921Zm0,0" transform="translate(-388.045 -166.988)"/>
    <path id="Path_25" data-name="Path 25" d="M388.773,84.015a18.2,18.2,0,0,0-1.922-1.222l-1.035,1.877a16.16,16.16,0,0,1,1.7,1.072Zm0,0" transform="translate(-334.921 -71.757)"/>
    <path id="Path_26" data-name="Path 26" d="M445.042,224.032l-2.11-.384a15.841,15.841,0,0,1-.482,1.948l2.043.643A18.059,18.059,0,0,0,445.042,224.032Zm0,0" transform="translate(-383.482 -193.836)"/>
    <path id="Path_27" data-name="Path 27" d="M360.7,70.979a17.983,17.983,0,0,0-2.167-.705l-.536,2.077a16.114,16.114,0,0,1,1.911.622Zm0,0" transform="translate(-310.271 -60.036)"/>
    <path id="Path_28" data-name="Path 28" d="M433,253.234l1.876,1.04c.215-.393.429-.8.612-1.209l-1.947-.9Q433.295,252.711,433,253.234Zm0,0" transform="translate(-375.299 -218.552)"/>
    <path id="Path_29" data-name="Path 29" d="M429.16,129.941a16.322,16.322,0,0,1,.974,1.754l1.936-.92a18.114,18.114,0,0,0-1.1-1.99Zm0,0" transform="translate(-371.974 -111.618)"/>
    <path id="Path_30" data-name="Path 30" d="M442,160.054a16.135,16.135,0,0,1,.506,1.942l2.1-.408a17.993,17.993,0,0,0-.575-2.2Zm0,0" transform="translate(-383.093 -138.137)"/>
    <path id="Path_31" data-name="Path 31" d="M357.407,138.722a6.812,6.812,0,0,1,4.3,6.356h2.144a8.946,8.946,0,0,0-5.652-8.347l-.383-.153-.8,1.99Zm0,0" transform="translate(-309.856 -118.383)"/>
  </g>
</svg>
