<svg xmlns="http://www.w3.org/2000/svg" width="45.598" height="64" viewBox="0 0 45.598 64">
  <g id="preffered_icon1" transform="translate(-0.273 0)" opacity="0.7">
    <path id="Path_12" data-name="Path 12" d="M20.714,25.737h25.35a.882.882,0,0,0,0-1.764H20.714a.882.882,0,0,0,0,1.764Zm0,0" transform="translate(-10.314 -12.739)"/>
    <path id="Path_13" data-name="Path 13" d="M.273,8.73v52.53A2.75,2.75,0,0,0,3.014,64H43.131a2.745,2.745,0,0,0,2.741-2.741V8.73a2.743,2.743,0,0,0-2.741-2.741H29.809a6.783,6.783,0,0,0-13.472,0H3.014A2.744,2.744,0,0,0,.273,8.73Zm43.844,52.53a.99.99,0,0,1-.991.991H3.014a.99.99,0,0,1-.991-.991V17.2h42.1ZM23.073,1.732a5.038,5.038,0,0,1,4.969,4.257H18.128A5.036,5.036,0,0,1,23.073,1.732Zm20.057,6a1,1,0,0,1,.994.994v6.716H2.024V8.73a.993.993,0,0,1,.991-.994Zm0,0" transform="translate(0 0)"/>
    <path id="Path_14" data-name="Path 14" d="M36.987,55.284H57.853a.882.882,0,0,0,0-1.764H36.987a.882.882,0,0,0,0,1.764Zm0,0" transform="translate(-19.3 -28.441)"/>
    <path id="Path_15" data-name="Path 15" d="M36.987,74.755H57.853a.883.883,0,0,0,0-1.766H36.987a.883.883,0,0,0,0,1.766Zm0,0" transform="translate(-19.3 -38.787)"/>
    <path id="Path_16" data-name="Path 16" d="M36.987,94.212H57.853a.883.883,0,0,0,0-1.766H36.987a.883.883,0,0,0,0,1.766Zm0,0" transform="translate(-19.3 -49.127)"/>
    <path id="Path_17" data-name="Path 17" d="M36.987,113.669H57.853a.881.881,0,0,0,0-1.763H36.987a.881.881,0,0,0,0,1.763Zm0,0" transform="translate(-19.3 -59.56)"/>
    <path id="Path_18" data-name="Path 18" d="M17.633,51.759a.884.884,0,0,0,.588.366h.131a.884.884,0,0,0,.541-.188l5.622-4.393a.882.882,0,1,0-.881-1.528.853.853,0,0,0-.2.155L18.544,50l-.854-1.218a.882.882,0,0,0-1.447,1.011Zm0,0" transform="translate(-8.416 -24.405)"/>
    <path id="Path_19" data-name="Path 19" d="M17.561,71a.886.886,0,0,0,.588.368h.131a.9.9,0,0,0,.541-.19l5.622-4.4A.881.881,0,1,0,23.4,65.365c-.013.009-.028.02-.041.031l-4.885,3.83-.854-1.218a.882.882,0,1,0-1.578.789.845.845,0,0,0,.131.192Zm0,0" transform="translate(-8.343 -34.665)"/>
    <path id="Path_20" data-name="Path 20" d="M17.627,90.238a.888.888,0,0,0,.588.364h.131a.884.884,0,0,0,.541-.188l5.622-4.4A.882.882,0,1,0,23.464,84.6c-.013.011-.028.02-.041.031l-4.89,3.819-.852-1.218a.884.884,0,1,0-1.448,1.012Zm0,0" transform="translate(-8.41 -44.893)"/>
    <path id="Path_21" data-name="Path 21" d="M17.633,109.655a.89.89,0,0,0,.588.366h.131a.93.93,0,0,0,.541-.188l5.622-4.4a.882.882,0,1,0-.94-1.493.791.791,0,0,0-.14.111l-4.89,3.824-.854-1.217a.882.882,0,1,0-1.447,1.011Zm0,0" transform="translate(-8.416 -55.291)"/>
  </g>
</svg>
