<svg xmlns="http://www.w3.org/2000/svg" width="64" height="64" viewBox="0 0 64 64">
  <g id="preffered_icon3" transform="translate(-0.001 -0.002)" opacity="0.7">
    <g id="Group_8" data-name="Group 8" transform="translate(0.001 0.002)">
      <g id="Group_7" data-name="Group 7" transform="translate(0)">
        <path id="Path_32" data-name="Path 32" d="M63.821,52.747l-7.8-11.7,1.366-.427a1.067,1.067,0,0,0,.7-1.336q-.011-.035-.024-.069l-2.4-6.164,4.881-4.539a1.067,1.067,0,0,0,.054-1.507c-.017-.019-.035-.037-.054-.054l-4.881-4.538,2.4-6.164a1.067,1.067,0,0,0-.608-1.381l-.069-.024-6.417-2-.561-6.581a1.073,1.073,0,0,0-.4-.747,1.058,1.058,0,0,0-.812-.223l-6.678.925-3.42-5.7A1.067,1.067,0,0,0,37.645.154l-.039.024L32,3.868,26.4.178a1.067,1.067,0,0,0-1.478.3l-.024.039-3.42,5.7L14.8,5.3a1.067,1.067,0,0,0-1.2.91c0,.019,0,.038-.006.057l-.562,6.581-6.412,2a1.067,1.067,0,0,0-.7,1.336q.011.035.024.069l2.4,6.164L3.449,26.955a1.067,1.067,0,0,0-.054,1.507c.017.019.035.037.054.054L8.33,33.054l-2.4,6.164A1.067,1.067,0,0,0,6.539,40.6l.069.024,1.415.441L.159,53.843a1.067,1.067,0,0,0,1.1,1.609l10.7-1.946,1.929,9.643a1.067,1.067,0,0,0,.838.837,1.053,1.053,0,0,0,.207.016,1.067,1.067,0,0,0,.887-.475L23.305,52.3l1.588,2.649a1.067,1.067,0,0,0,.678.492,1.05,1.05,0,0,0,.242.027,1.066,1.066,0,0,0,.587-.176L32,51.6l5.6,3.69a1.067,1.067,0,0,0,1.478-.3l.024-.039L40.7,52.3,48.18,63.527a1.067,1.067,0,0,0,.887.475,1.048,1.048,0,0,0,.207-.02,1.067,1.067,0,0,0,.838-.837l1.941-9.727,10.784.985a1.067,1.067,0,0,0,.983-1.654ZM15.478,60.2l-1.632-8.145a1.067,1.067,0,0,0-1.236-.841L3.229,52.921l6.9-11.2,2.9.9.561,6.581a1.067,1.067,0,0,0,1.21.97l6.678-.925.618,1.03ZM41.06,47.551,37.849,52.9l-5.262-3.469a1.067,1.067,0,0,0-1.173,0L26.151,52.9l-3.211-5.354a1.067,1.067,0,0,0-.914-.518.988.988,0,0,0-.147.011l-6.262.866-.527-6.175a1.067,1.067,0,0,0-.747-.928L8.335,38.926l2.24-5.773a1.067,1.067,0,0,0-.268-1.168l-4.565-4.25,4.571-4.25a1.067,1.067,0,0,0,.268-1.168L8.34,16.543l6.011-1.874a1.067,1.067,0,0,0,.747-.928l.527-6.175,6.262.867a1.067,1.067,0,0,0,1.067-.509l3.211-5.353,5.25,3.465a1.067,1.067,0,0,0,1.173,0l5.263-3.465,3.211,5.354a1.074,1.074,0,0,0,1.061.508l6.262-.866.527,6.175a1.067,1.067,0,0,0,.747.928l6.011,1.875-2.246,5.773a1.067,1.067,0,0,0,.268,1.168l4.57,4.25-4.571,4.25a1.067,1.067,0,0,0-.268,1.168l2.24,5.775L49.656,40.8a1.067,1.067,0,0,0-.747.928L48.383,47.9l-6.261-.863A1.074,1.074,0,0,0,41.06,47.551ZM51.3,51.2a1.082,1.082,0,0,0-1.141.853L48.527,60.2l-6.613-9.92.617-1.028,6.677.925a1.067,1.067,0,0,0,1.2-.91c0-.019,0-.038.006-.057l.562-6.581,2.928-.913,6.9,10.358Z" transform="translate(-0.001 -0.002)"/>
      </g>
    </g>
    <g id="Group_10" data-name="Group 10" transform="translate(16.006 9.323)">
      <g id="Group_9" data-name="Group 9">
        <path id="Path_33" data-name="Path 33" d="M151.994,84.8a3.2,3.2,0,0,0-3.2-3.2h-7.464V77.335A5.326,5.326,0,0,0,136.01,72H136a1.066,1.066,0,0,0-1.066,1.066v5.08l-1.919,3.83-3.432,2.746a1.059,1.059,0,0,0-1.047-.993H121.07A1.066,1.066,0,0,0,120,84.8v16a1.066,1.066,0,0,0,1.066,1.066h7.464a1.066,1.066,0,0,0,1.066-1.066h16a3.215,3.215,0,0,0,3.2-3.2,3.162,3.162,0,0,0-.427-1.565,2.985,2.985,0,0,0,.542-.433,3.141,3.141,0,0,0,.525-3.832,2.985,2.985,0,0,0,.542-.433A3.141,3.141,0,0,0,150.5,87.5a2.985,2.985,0,0,0,.542-.433A3.139,3.139,0,0,0,151.994,84.8ZM127.469,99.728h-5.332V85.866h5.332Zm22.067-14.17a1.02,1.02,0,0,1-.74.307H144.53V88h3.2a1.066,1.066,0,0,1,1.066,1.066,1.038,1.038,0,0,1-.326.759,1.02,1.02,0,0,1-.74.307h-4.265v2.133h3.2a1.066,1.066,0,0,1,1.066,1.066,1.038,1.038,0,0,1-.326.759,1.02,1.02,0,0,1-.74.307H142.4v2.133h3.2a1.066,1.066,0,0,1,1.066,1.066,1.038,1.038,0,0,1-.326.759,1.02,1.02,0,0,1-.74.307h-16V87.444l4.932-3.944a1.072,1.072,0,0,0,.288-.356l2.133-4.265a1.066,1.066,0,0,0,.112-.477V74.318a3.188,3.188,0,0,1,2.133,3.017v5.332a1.066,1.066,0,0,0,1.066,1.066H148.8a1.066,1.066,0,0,1,1.066,1.066A1.038,1.038,0,0,1,149.535,85.558Z" transform="translate(-120.004 -72.003)"/>
      </g>
    </g>
  </g>
</svg>
