<svg id="Layer_1" enable-background="new 0 0 510 510" height="512" viewBox="0 0 510 510" width="512" xmlns="http://www.w3.org/2000/svg"><g><path id="XMLID_1950_" d="m180 450c-10 0-170 0-180 0 0-12.685 0-437.315 0-450h180l15 225z" fill="#edf5ff"/><g fill="#b5dbff"><path id="XMLID_1957_" d="m180 270c-14.518 0-105.386 0-120 0 0-10.492 0-19.508 0-30h120l15 15z"/><path id="XMLID_1955_" d="m180 210c-14.518 0-105.386 0-120 0 0-10.492 0-19.508 0-30h120l15 15z"/><path id="XMLID_1979_" d="m180 150c-14.518 0-105.386 0-120 0 0-10.492 0-19.508 0-30h120l15 15z"/><path id="XMLID_1956_" d="m180 90c-14.518 0-105.386 0-120 0 0-10.492 0-19.508 0-30h120l15 15z"/></g><path id="XMLID_1967_" d="m150 330c-10.492 0-19.508 0-30 0 0-10.492 0-19.508 0-30-10.492 0-19.508 0-30 0v30c-10.492 0-19.508 0-30 0v30h30v30h30c0-10.492 0-19.508 0-30h30c0-10.492 0-19.508 0-30z" fill="#ff4d4d"/><path id="XMLID_393_" d="m180 0h180v450h-180z" fill="#b5dbff"/><path id="XMLID_1980_" d="m180 240h60v30h-60z" fill="#72bbff"/><path id="XMLID_1970_" d="m180 180h15v30h-15z" fill="#72bbff"/><path id="XMLID_1954_" d="m180 120h120v30h-120z" fill="#72bbff"/><path id="XMLID_1953_" d="m180 60h120v30h-120z" fill="#72bbff"/><path id="XMLID_843_" d="m180 360h60v30h-60z" fill="#ff4d4d"/><path id="XMLID_477_" d="m180 300h60v30h-60z" fill="#ff4d4d"/><path id="XMLID_1960_" d="m405 490.715c-10.889 0-79.04 0-90 0 0-12.863 0-218.566 0-231.43h90l15 115.715z" fill="#edf5ff"/><path id="XMLID_1952_" d="m405 259.285h90v231.43h-90z" fill="#b5dbff"/><circle id="XMLID_1966_" cx="375" cy="435" fill="#ff884d" r="21.213"/><circle id="XMLID_1964_" cx="375" cy="375" fill="#ff884d" r="21.213"/><path id="XMLID_1962_" d="m405 330c-14.981 0-30.019 0-45 0 0-10.492 0-19.508 0-30h45l15 15z" fill="#72bbff"/><path id="XMLID_1965_" d="m420 420h30v30h-30z" fill="#ff4d4d"/><path id="XMLID_1963_" d="m420 360h30v30h-30z" fill="#ff4d4d"/><path id="XMLID_1969_" d="m405 300h45v30h-45z" fill="#8095ff"/><path id="XMLID_2009_" d="m330 480c0-11.664 0-198.336 0-210h75l15-15-15-15c-28.278 0-88.527 0-105 0v270h105l15-15-15-15c-20.194 0-63.236 0-75 0z" fill="#3b6bab"/><path id="XMLID_1974_" d="m510 240h-105v30h75v210h-75v30h105z" fill="#00467d"/></g></svg>