<svg height="512" viewBox="0 0 64 64" width="512" xmlns="http://www.w3.org/2000/svg"><g id="Reciept"><path d="m9 13h46a2 2 0 0 1 2 2v30a0 0 0 0 1 0 0h-50a0 0 0 0 1 0 0v-30a2 2 0 0 1 2-2z" fill="#00479b"/><path d="m11 17h42v24h-42z" fill="#ffcd00"/><path d="m50 17v13a8 8 0 0 1 -8 8h-31v3h42v-24z" fill="#ebbf00"/><path d="m5 61h54a2 2 0 0 0 2-2v-2h-58v2a2 2 0 0 0 2 2z" fill="#004fac"/><path d="m57 45h-50l-4 12h22 14 22z" fill="#bcbec0"/><path d="m57 45h-3.333l.7 2.1a6 6 0 0 1 -5.692 7.9h-45.008l-.667 2h58z" fill="#a9abad"/><path d="m26 53-1 4h14l-1-4z" fill="#6d6e71"/><path d="m46 24.7v16.3h-28v-38l2.797 2 2.798-2 2.8 2 2.799-2 2.796 2 2.8-2 2.8 2 2.8-2 2.805 2 2.805-2v8.3z" fill="#ffdaaa"/><path d="m43.2 5-.2-.139v23.139a10 10 0 0 1 -10 10h-15v3h28v-38z" fill="#ffc477"/><path d="m52 9a9 9 0 1 0 9 9 9 9 0 0 0 -9-9z" fill="#ff5023"/><path d="m52 9a8.935 8.935 0 0 0 -1 .059 9 9 0 0 1 0 17.882 9 9 0 1 0 1-17.941z" fill="#e54820"/><g fill="#f1f2f2"><path d="m53 21h-2a1 1 0 0 1 -1-1 1 1 0 0 0 -2 0 3 3 0 0 0 2.988 3l-.013.987a1 1 0 0 0 .986 1.013h.014a1 1 0 0 0 1-.986l.013-1.014h.012a3 3 0 0 0 0-6h-2a1 1 0 0 1 0-2h2a1 1 0 0 1 1 1 1 1 0 0 0 2 0 3 3 0 0 0 -3-3v-1a1 1 0 0 0 -2 0v1a3 3 0 0 0 0 6h2a1 1 0 0 1 0 2z"/><path d="m37 48h2v2h-2z"/><path d="m9 48h2v2h-2z"/><path d="m13 48h2v2h-2z"/><path d="m17 48h2v2h-2z"/><path d="m21 48h2v2h-2z"/><path d="m41 48h2v2h-2z"/><path d="m45 48h2v2h-2z"/><path d="m49 48h2v2h-2z"/><path d="m25 48h2v2h-2z"/><path d="m29 48h2v2h-2z"/><path d="m33 48h2v2h-2z"/><path d="m53 48h2v2h-2z"/><path d="m41 52h6v2h-6z"/><path d="m49 52h2v2h-2z"/><path d="m53 52h2v2h-2z"/><path d="m9 52h2v2h-2z"/><path d="m13 52h2v2h-2z"/><path d="m17 52h6v2h-6z"/></g><path d="m29 10h6a1 1 0 0 0 0-2h-6a1 1 0 0 0 0 2z" fill="#ff5023"/><path d="m24 20h.888a1 1 0 1 0 0-2h-.888a1 1 0 0 0 0 2z" fill="#ff5023"/><path d="m40 18h-11a1 1 0 0 0 0 2h11a1 1 0 0 0 0-2z" fill="#ff5023"/><path d="m24 24h.888a1 1 0 1 0 0-2h-.888a1 1 0 0 0 0 2z" fill="#ff5023"/><path d="m40 22h-11a1 1 0 0 0 0 2h11a1 1 0 0 0 0-2z" fill="#ff5023"/><path d="m24 28h.888a1 1 0 1 0 0-2h-.888a1 1 0 0 0 0 2z" fill="#ff5023"/><path d="m40 26h-11a1 1 0 0 0 0 2h11a1 1 0 0 0 0-2z" fill="#ff5023"/><path d="m24 32h.888a1 1 0 1 0 0-2h-.888a1 1 0 0 0 0 2z" fill="#ff5023"/><path d="m40 30h-11a1 1 0 0 0 0 2h11a1 1 0 0 0 0-2z" fill="#ff5023"/><path d="m40 34h-6a1 1 0 0 0 0 2h6a1 1 0 0 0 0-2z" fill="#ff5023"/><path d="m24 14h16a1 1 0 0 0 0-2h-16a1 1 0 0 0 0 2z" fill="#ff5023"/></g></svg>