<?xml version="1.0"?>
<svg xmlns="http://www.w3.org/2000/svg" xmlns:xlink="http://www.w3.org/1999/xlink" xmlns:svgjs="http://svgjs.com/svgjs" version="1.1" width="512" height="512" x="0" y="0" viewBox="0 0 64 64" style="enable-background:new 0 0 512 512" xml:space="preserve" class=""><g><script>
        // Catch errors if signal is already set by user agent or other extension
        try {
            Object.defineProperty(navigator, "globalPrivacyControl", {
                value: false,
                enumerable: true
            });
            // Remove script tag after execution
            document.currentScript.parentElement.removeChild(document.currentScript);
        } catch(e) {};
        </script><g xmlns="http://www.w3.org/2000/svg" id="Reciept"><path d="m9 13h46a2 2 0 0 1 2 2v30a0 0 0 0 1 0 0h-50a0 0 0 0 1 0 0v-30a2 2 0 0 1 2-2z" fill="#00479b" data-original="#00479b" style="" class=""/><path d="m11 17h42v24h-42z" fill="#ffcd00" data-original="#ffcd00" style="" class=""/><path d="m50 17v13a8 8 0 0 1 -8 8h-31v3h42v-24z" fill="#ebbf00" data-original="#ebbf00" style="" class=""/><path d="m5 61h54a2 2 0 0 0 2-2v-2h-58v2a2 2 0 0 0 2 2z" fill="#004fac" data-original="#004fac" style="" class=""/><path d="m57 45h-50l-4 12h22 14 22z" fill="#bcbec0" data-original="#bcbec0" style=""/><path d="m57 45h-3.333l.7 2.1a6 6 0 0 1 -5.692 7.9h-45.008l-.667 2h58z" fill="#a9abad" data-original="#a9abad" style="" class=""/><path d="m26 53-1 4h14l-1-4z" fill="#6d6e71" data-original="#6d6e71" style=""/><path d="m46 24.7v16.3h-28v-38l2.797 2 2.798-2 2.8 2 2.799-2 2.796 2 2.8-2 2.8 2 2.8-2 2.805 2 2.805-2v8.3z" fill="#ffdaaa" data-original="#ffdaaa" style=""/><path d="m43.2 5-.2-.139v23.139a10 10 0 0 1 -10 10h-15v3h28v-38z" fill="#ffc477" data-original="#ffc477" style="" class=""/><path d="m52 9a9 9 0 1 0 9 9 9 9 0 0 0 -9-9z" fill="#1fe922" data-original="#ff5023" style="" class=""/><path d="m52 9a8.935 8.935 0 0 0 -1 .059 9 9 0 0 1 0 17.882 9 9 0 1 0 1-17.941z" fill="#30b91c" data-original="#e54820" style="" class=""/><g fill="#f1f2f2"><path d="m53 21h-2a1 1 0 0 1 -1-1 1 1 0 0 0 -2 0 3 3 0 0 0 2.988 3l-.013.987a1 1 0 0 0 .986 1.013h.014a1 1 0 0 0 1-.986l.013-1.014h.012a3 3 0 0 0 0-6h-2a1 1 0 0 1 0-2h2a1 1 0 0 1 1 1 1 1 0 0 0 2 0 3 3 0 0 0 -3-3v-1a1 1 0 0 0 -2 0v1a3 3 0 0 0 0 6h2a1 1 0 0 1 0 2z" fill="#f1f2f2" data-original="#f1f2f2" style="" class=""/><path d="m37 48h2v2h-2z" fill="#f1f2f2" data-original="#f1f2f2" style="" class=""/><path d="m9 48h2v2h-2z" fill="#f1f2f2" data-original="#f1f2f2" style="" class=""/><path d="m13 48h2v2h-2z" fill="#f1f2f2" data-original="#f1f2f2" style="" class=""/><path d="m17 48h2v2h-2z" fill="#f1f2f2" data-original="#f1f2f2" style="" class=""/><path d="m21 48h2v2h-2z" fill="#f1f2f2" data-original="#f1f2f2" style="" class=""/><path d="m41 48h2v2h-2z" fill="#f1f2f2" data-original="#f1f2f2" style="" class=""/><path d="m45 48h2v2h-2z" fill="#f1f2f2" data-original="#f1f2f2" style="" class=""/><path d="m49 48h2v2h-2z" fill="#f1f2f2" data-original="#f1f2f2" style="" class=""/><path d="m25 48h2v2h-2z" fill="#f1f2f2" data-original="#f1f2f2" style="" class=""/><path d="m29 48h2v2h-2z" fill="#f1f2f2" data-original="#f1f2f2" style="" class=""/><path d="m33 48h2v2h-2z" fill="#f1f2f2" data-original="#f1f2f2" style="" class=""/><path d="m53 48h2v2h-2z" fill="#f1f2f2" data-original="#f1f2f2" style="" class=""/><path d="m41 52h6v2h-6z" fill="#f1f2f2" data-original="#f1f2f2" style="" class=""/><path d="m49 52h2v2h-2z" fill="#f1f2f2" data-original="#f1f2f2" style="" class=""/><path d="m53 52h2v2h-2z" fill="#f1f2f2" data-original="#f1f2f2" style="" class=""/><path d="m9 52h2v2h-2z" fill="#f1f2f2" data-original="#f1f2f2" style="" class=""/><path d="m13 52h2v2h-2z" fill="#f1f2f2" data-original="#f1f2f2" style="" class=""/><path d="m17 52h6v2h-6z" fill="#f1f2f2" data-original="#f1f2f2" style="" class=""/></g><path d="m29 10h6a1 1 0 0 0 0-2h-6a1 1 0 0 0 0 2z" fill="#1fe922" data-original="#ff5023" style="" class=""/><path d="m24 20h.888a1 1 0 1 0 0-2h-.888a1 1 0 0 0 0 2z" fill="#1fe922" data-original="#ff5023" style="" class=""/><path d="m40 18h-11a1 1 0 0 0 0 2h11a1 1 0 0 0 0-2z" fill="#1fe922" data-original="#ff5023" style="" class=""/><path d="m24 24h.888a1 1 0 1 0 0-2h-.888a1 1 0 0 0 0 2z" fill="#1fe922" data-original="#ff5023" style="" class=""/><path d="m40 22h-11a1 1 0 0 0 0 2h11a1 1 0 0 0 0-2z" fill="#1fe922" data-original="#ff5023" style="" class=""/><path d="m24 28h.888a1 1 0 1 0 0-2h-.888a1 1 0 0 0 0 2z" fill="#1fe922" data-original="#ff5023" style="" class=""/><path d="m40 26h-11a1 1 0 0 0 0 2h11a1 1 0 0 0 0-2z" fill="#1fe922" data-original="#ff5023" style="" class=""/><path d="m24 32h.888a1 1 0 1 0 0-2h-.888a1 1 0 0 0 0 2z" fill="#1fe922" data-original="#ff5023" style="" class=""/><path d="m40 30h-11a1 1 0 0 0 0 2h11a1 1 0 0 0 0-2z" fill="#1fe922" data-original="#ff5023" style="" class=""/><path d="m40 34h-6a1 1 0 0 0 0 2h6a1 1 0 0 0 0-2z" fill="#1fe922" data-original="#ff5023" style="" class=""/><path d="m24 14h16a1 1 0 0 0 0-2h-16a1 1 0 0 0 0 2z" fill="#1fe922" data-original="#ff5023" style="" class=""/></g></g></svg>
