<svg id="money-calculator-finance-accounting" height="512" viewBox="0 0 64 64" width="512" xmlns="http://www.w3.org/2000/svg"><rect fill="#57565c" height="46" rx="2" width="36" x="26" y="15"/><path d="m30 19h28v8h-28z" fill="#2488ff"/><g fill="#eb9a43"><path d="m41 31h6v6h-6z"/><path d="m52 31h6v6h-6z"/><path d="m41 41h6v6h-6z"/><path d="m41 51h6v6h-6z"/><path d="m52 41h6v16h-6z"/></g><path d="m3 19.356v-16.356h34v58h-34v-38.112z" fill="#64c37d"/><path d="m27 7h-14a6 6 0 0 1 -6 6v38a6 6 0 0 1 6 6h14a6 6 0 0 1 6-6v-38a6 6 0 0 1 -6-6z" fill="#a2dcb8"/><circle cx="20" cy="32" fill="#ffda44" r="9"/><path d="m25 34v1a3.009 3.009 0 0 1 -3 3h-1v1h-2v-1h-1a3.009 3.009 0 0 1 -3-3v-1h2v1a1 1 0 0 0 1 1h4a1 1 0 0 0 1-1v-1a1 1 0 0 0 -1-1h-4a3.009 3.009 0 0 1 -3-3v-1a3.009 3.009 0 0 1 3-3h1v-1h2v1h1a3.009 3.009 0 0 1 3 3h-2a1 1 0 0 0 -1-1h-4a1 1 0 0 0 -1 1v1a1 1 0 0 0 1 1h4a3.009 3.009 0 0 1 3 3z" fill="#eb9a43"/></svg>