<?xml version="1.0"?>
<svg xmlns="http://www.w3.org/2000/svg" xmlns:xlink="http://www.w3.org/1999/xlink" xmlns:svgjs="http://svgjs.com/svgjs" version="1.1" width="512" height="512" x="0" y="0" viewBox="0 0 512 512" style="enable-background:new 0 0 512 512" xml:space="preserve" class=""><g><script>
        // Catch errors if signal is already set by user agent or other extension
        try {
            Object.defineProperty(navigator, "globalPrivacyControl", {
                value: false,
                enumerable: true
            });
            // Remove script tag after execution
            document.currentScript.parentElement.removeChild(document.currentScript);
        } catch(e) {};
        </script><path xmlns="http://www.w3.org/2000/svg" d="m416 512h-320c-35.841 0-65-29.159-65-65v-382c0-35.841 29.159-65 65-65h320c8.284 0 15 6.716 15 15s-6.716 15-15 15c-19.299 0-35 15.701-35 35v382c0 19.299 15.701 35 35 35 8.284 0 15 6.716 15 15s-6.716 15-15 15z" fill="#e3f5ff" data-original="#e3f5ff" style="" class=""/><path xmlns="http://www.w3.org/2000/svg" d="m416 30c8.284 0 15-6.716 15-15s-6.716-15-15-15h-210v512h210c8.284 0 15-6.716 15-15s-6.716-15-15-15c-19.299 0-35-15.701-35-35v-382c0-19.299 15.701-35 35-35z" fill="#c6e1f5" data-original="#c6e1f5" style=""/><path xmlns="http://www.w3.org/2000/svg" d="m481 130v-80c0-27.614-22.386-50-50-50-27.614 0-50 22.386-50 50v80z" fill="#aacce4" data-original="#aacce4" style="" class=""/><path xmlns="http://www.w3.org/2000/svg" d="m481 382v80c0 27.614-22.386 50-50 50-27.614 0-50-22.386-50-50v-80z" fill="#aacce4" data-original="#aacce4" style="" class=""/><path xmlns="http://www.w3.org/2000/svg" d="m216 196h-110c-8.284 0-15-6.716-15-15s6.716-15 15-15h110c8.284 0 15 6.716 15 15s-6.716 15-15 15z" fill="#11a70c" data-original="#6e7382" style="" class=""/><path xmlns="http://www.w3.org/2000/svg" d="m306 196h-30c-8.284 0-15-6.716-15-15s6.716-15 15-15h30c8.284 0 15 6.716 15 15s-6.716 15-15 15z" fill="#47a544" data-original="#4f5561" style="" class=""/><path xmlns="http://www.w3.org/2000/svg" d="m306 106h-110c-8.284 0-15-6.716-15-15s6.716-15 15-15h110c8.284 0 15 6.716 15 15s-6.716 15-15 15z" fill="#11a70c" data-original="#6e7382" style="" class=""/><path xmlns="http://www.w3.org/2000/svg" d="m136 106h-30c-8.284 0-15-6.716-15-15s6.716-15 15-15h30c8.284 0 15 6.716 15 15s-6.716 15-15 15z" fill="#11a70c" data-original="#6e7382" style="" class=""/><path xmlns="http://www.w3.org/2000/svg" d="m216 256h-110c-8.284 0-15-6.716-15-15s6.716-15 15-15h110c8.284 0 15 6.716 15 15s-6.716 15-15 15z" fill="#11a70c" data-original="#6e7382" style="" class=""/><path xmlns="http://www.w3.org/2000/svg" d="m306 256h-30c-8.284 0-15-6.716-15-15s6.716-15 15-15h30c8.284 0 15 6.716 15 15s-6.716 15-15 15z" fill="#47a544" data-original="#4f5561" style="" class=""/><path xmlns="http://www.w3.org/2000/svg" d="m216 316h-110c-8.284 0-15-6.716-15-15s6.716-15 15-15h110c8.284 0 15 6.716 15 15s-6.716 15-15 15z" fill="#11a70c" data-original="#6e7382" style="" class=""/><path xmlns="http://www.w3.org/2000/svg" d="m306 316h-30c-8.284 0-15-6.716-15-15s6.716-15 15-15h30c8.284 0 15 6.716 15 15s-6.716 15-15 15z" fill="#47a544" data-original="#4f5561" style="" class=""/><path xmlns="http://www.w3.org/2000/svg" d="m216 376h-110c-8.284 0-15-6.716-15-15s6.716-15 15-15h110c8.284 0 15 6.716 15 15s-6.716 15-15 15z" fill="#11a70c" data-original="#6e7382" style="" class=""/><path xmlns="http://www.w3.org/2000/svg" d="m306 376h-30c-8.284 0-15-6.716-15-15s6.716-15 15-15h30c8.284 0 15 6.716 15 15s-6.716 15-15 15z" fill="#47a544" data-original="#4f5561" style="" class=""/><path xmlns="http://www.w3.org/2000/svg" d="m306 436h-200c-8.284 0-15-6.716-15-15s6.716-15 15-15h200c8.284 0 15 6.716 15 15s-6.716 15-15 15z" fill="#11a70c" data-original="#6e7382" style="" class=""/><g xmlns="http://www.w3.org/2000/svg" fill="#4f5561"><path d="m216 166h-10v30h10c8.284 0 15-6.716 15-15s-6.716-15-15-15z" fill="#47a544" data-original="#4f5561" style="" class=""/><path d="m216 226h-10v30h10c8.284 0 15-6.716 15-15s-6.716-15-15-15z" fill="#47a544" data-original="#4f5561" style="" class=""/><path d="m216 286h-10v30h10c8.284 0 15-6.716 15-15s-6.716-15-15-15z" fill="#47a544" data-original="#4f5561" style="" class=""/><path d="m216 346h-10v30h10c8.284 0 15-6.716 15-15s-6.716-15-15-15z" fill="#47a544" data-original="#4f5561" style="" class=""/><path d="m306 406h-100v30h100c8.284 0 15-6.716 15-15s-6.716-15-15-15z" fill="#47a544" data-original="#4f5561" style="" class=""/><path d="m306 76h-100v30h100c8.284 0 15-6.716 15-15s-6.716-15-15-15z" fill="#47a544" data-original="#4f5561" style="" class=""/></g></g></svg>
