<svg xmlns="http://www.w3.org/2000/svg" width="24" height="20.129" viewBox="0 0 24 20.129">
  <g id="bathroom" transform="translate(-8 -48)" opacity="0.5">
    <path id="Path_67" data-name="Path 67" d="M31.613,58.065H12.258V57.29a.387.387,0,0,0-.387-.387h-.387V55.742h.774v.387a.387.387,0,1,0,.774,0V54.581a.387.387,0,0,0-.774,0v.387h-.774V50.323a1.55,1.55,0,0,1,1.548-1.548h1.548a1.55,1.55,0,0,1,1.548,1.548v.033a2.326,2.326,0,0,0-1.935,2.29.387.387,0,0,0,.387.387h3.871a.387.387,0,0,0,.387-.387,2.326,2.326,0,0,0-1.935-2.29v-.033A2.325,2.325,0,0,0,14.581,48H13.032a2.325,2.325,0,0,0-2.323,2.323V56.9h-.387a.387.387,0,0,0-.387.387v.774H8.387A.387.387,0,0,0,8,58.452v1.161A.387.387,0,0,0,8.387,60H9.548v4.645a2.326,2.326,0,0,0,1.935,2.29v.807a.387.387,0,0,0,.774,0v-.774H27.742v.774a.387.387,0,0,0,.774,0v-.807a2.326,2.326,0,0,0,1.935-2.29V60h1.161A.387.387,0,0,0,32,59.613V58.452A.387.387,0,0,0,31.613,58.065ZM16.516,51.1a1.551,1.551,0,0,1,1.5,1.161h-3A1.551,1.551,0,0,1,16.516,51.1ZM10.71,57.677h.774v.387H10.71Zm18.968,6.968a1.55,1.55,0,0,1-1.548,1.548H11.871a1.55,1.55,0,0,1-1.548-1.548V60H29.677Zm1.548-5.419H8.774v-.387H31.226Z" transform="translate(0 0)"/>
    <path id="Path_68" data-name="Path 68" d="M72.387,312.775h3.1a.387.387,0,1,0,0-.775h-3.1a.387.387,0,0,0,0,.775Z" transform="translate(-60.901 -251.226)"/>
    <path id="Path_69" data-name="Path 69" d="M160.387,312.775h.387a.387.387,0,1,0,0-.775h-.387a.387.387,0,0,0,0,.775Z" transform="translate(-144.645 -251.226)"/>
  </g>
</svg>
