<svg xmlns="http://www.w3.org/2000/svg" width="24" height="17.032" viewBox="0 0 24 17.032">
  <path id="bedRooms" d="M31.613,92.774h-.387v-3.1a1.55,1.55,0,0,0-1.548-1.548V81.548A1.55,1.55,0,0,0,28.129,80H11.871a1.55,1.55,0,0,0-1.548,1.548v6.581a1.55,1.55,0,0,0-1.548,1.548v3.1H8.387A.387.387,0,0,0,8,93.161V94.71a.387.387,0,0,0,.387.387h.387v1.548a.387.387,0,0,0,.387.387h1.161a.387.387,0,0,0,.379-.311l.325-1.624H28.973l.325,1.624a.387.387,0,0,0,.379.311h1.161a.387.387,0,0,0,.387-.387V95.1h.387A.387.387,0,0,0,32,94.71V93.161A.387.387,0,0,0,31.613,92.774ZM11.1,81.548a.775.775,0,0,1,.774-.774H28.129a.775.775,0,0,1,.774.774v6.581h-.774V86.581a1.55,1.55,0,0,0-1.548-1.548H21.935a1.55,1.55,0,0,0-1.548,1.548v1.548h-.774V86.581a1.55,1.55,0,0,0-1.548-1.548H13.419a1.55,1.55,0,0,0-1.548,1.548v1.548H11.1Zm16.258,5.032v1.548H21.161V86.581a.775.775,0,0,1,.774-.774h4.645a.775.775,0,0,1,.774.774Zm-8.516,0v1.548H12.645V86.581a.775.775,0,0,1,.774-.774h4.645A.775.775,0,0,1,18.839,86.581Zm-9.29,3.1a.775.775,0,0,1,.774-.774H29.677a.775.775,0,0,1,.774.774v3.1H9.548Zm.457,6.581H9.548V95.1h.689Zm20.446,0h-.457L29.763,95.1h.689Zm.774-1.935H8.774v-.774H31.226Z" transform="translate(-8 -80)" opacity="0.5"/>
</svg>
