<svg xmlns="http://www.w3.org/2000/svg" width="24" height="24" viewBox="0 0 24 24">
  <g id="completion" transform="translate(0)" opacity="0.5">
    <path id="Path_70" data-name="Path 70" d="M136,272h.833v.833H136Zm0,0" transform="translate(-129.21 -258.419)"/>
    <path id="Path_71" data-name="Path 71" d="M168,272h.833v.833H168Zm0,0" transform="translate(-159.612 -258.419)"/>
    <path id="Path_72" data-name="Path 72" d="M200,272h.833v.833H200Zm0,0" transform="translate(-190.014 -258.419)"/>
    <path id="Path_73" data-name="Path 73" d="M136,304h.833v.833H136Zm0,0" transform="translate(-129.21 -288.822)"/>
    <path id="Path_74" data-name="Path 74" d="M168,304h.833v.833H168Zm0,0" transform="translate(-159.612 -288.822)"/>
    <path id="Path_75" data-name="Path 75" d="M200,304h.833v.833H200Zm0,0" transform="translate(-190.014 -288.822)"/>
    <path id="Path_76" data-name="Path 76" d="M232,304h.833v.833H232Zm0,0" transform="translate(-220.417 -288.822)"/>
    <path id="Path_77" data-name="Path 77" d="M264,304h.833v.833H264Zm0,0" transform="translate(-250.819 -288.822)"/>
    <path id="Path_78" data-name="Path 78" d="M136,336h.833v.833H136Zm0,0" transform="translate(-129.21 -319.224)"/>
    <path id="Path_79" data-name="Path 79" d="M168,336h.833v.833H168Zm0,0" transform="translate(-159.612 -319.224)"/>
    <path id="Path_80" data-name="Path 80" d="M200,336h.833v.833H200Zm0,0" transform="translate(-190.014 -319.224)"/>
    <path id="Path_81" data-name="Path 81" d="M232,336h.833v.833H232Zm0,0" transform="translate(-220.417 -319.224)"/>
    <path id="Path_82" data-name="Path 82" d="M264,336h.833v.833H264Zm0,0" transform="translate(-250.819 -319.224)"/>
    <path id="Path_83" data-name="Path 83" d="M136,368h.833v.833H136Zm0,0" transform="translate(-129.21 -349.626)"/>
    <path id="Path_84" data-name="Path 84" d="M168,368h.833v.833H168Zm0,0" transform="translate(-159.612 -349.626)"/>
    <path id="Path_85" data-name="Path 85" d="M200,368h.833v.833H200Zm0,0" transform="translate(-190.014 -349.626)"/>
    <path id="Path_86" data-name="Path 86" d="M232,368h.833v.833H232Zm0,0" transform="translate(-220.417 -349.626)"/>
    <path id="Path_87" data-name="Path 87" d="M264,368h.833v.833H264Zm0,0" transform="translate(-250.819 -349.626)"/>
    <path id="Path_88" data-name="Path 88" d="M136,400h.833v.833H136Zm0,0" transform="translate(-129.21 -380.167)"/>
    <path id="Path_89" data-name="Path 89" d="M168,400h.833v.833H168Zm0,0" transform="translate(-159.612 -380.167)"/>
    <path id="Path_90" data-name="Path 90" d="M200,400h.833v.833H200Zm0,0" transform="translate(-190.014 -380.167)"/>
    <path id="Path_91" data-name="Path 91" d="M232,400h.833v.833H232Zm0,0" transform="translate(-220.417 -380.167)"/>
    <path id="Path_92" data-name="Path 92" d="M264,400h.833v.833H264Zm0,0" transform="translate(-250.819 -380.167)"/>
    <path id="Path_93" data-name="Path 93" d="M136,432h.833v.833H136Zm0,0" transform="translate(-129.21 -410.5)"/>
    <path id="Path_94" data-name="Path 94" d="M168,432h.833v.833H168Zm0,0" transform="translate(-159.612 -410.5)"/>
    <path id="Path_95" data-name="Path 95" d="M200,432h.833v.833H200Zm0,0" transform="translate(-190.014 -410.5)"/>
    <path id="Path_96" data-name="Path 96" d="M232,432h.833v.833H232Zm0,0" transform="translate(-220.417 -410.5)"/>
    <path id="Path_97" data-name="Path 97" d="M264,432h.833v.833H264Zm0,0" transform="translate(-250.819 -410.5)"/>
    <path id="Path_98" data-name="Path 98" d="M23.6,1.2H20.8V.4a.4.4,0,0,0-.4-.4h-4a.4.4,0,0,0-.4.4v.8H.4a.4.4,0,0,0-.4.4V3.2a.4.4,0,0,0,.4.4H1.6v7.6a.4.4,0,0,0,.4.4.4.4,0,1,1-.4.4H.8a1.191,1.191,0,0,0,.306.793L.08,14.16l.005,0A.392.392,0,0,0,0,14.4V16a.4.4,0,0,0,.117.283l.8.8A.4.4,0,0,0,1.2,17.2H2.8a.4.4,0,0,0,.283-.117l.8-.8A.4.4,0,0,0,4,16V14.4a.392.392,0,0,0-.085-.236l.005,0L2.894,12.793A1.193,1.193,0,0,0,2.4,10.869V3.6H16V4a.4.4,0,0,0,.4.4h.8V23.2H15.6V7.2h-.8V8.8H12.4V8h-.8v.8H9.2V8.4H8.4v.4H6V7.6h5.2V6.8H6V5.2H5.2v18H4.566L2.683,21.317a.4.4,0,0,0-.566,0L.234,23.2H0V24H24v-.8h-.312a1.189,1.189,0,0,0-.576-1.954,1.2,1.2,0,1,0-2.224,0,1.189,1.189,0,0,0-.576,1.954H19.6V4.4h.8a.4.4,0,0,0,.4-.4V3.6h2.8a.4.4,0,0,0,.4-.4V1.6a.4.4,0,0,0-.4-.4ZM2.2,13.2l.6.8H1.2l.6-.8Zm1,2.635-.566.565H1.366L.8,15.835V14.8H3.2ZM21.88,2l-1.08.72V2ZM16.8.8h1.6V2.4H16.8ZM6,2.08l1.08.72H4.92Zm-2.4.64L2.52,2H4.68ZM7.32,2H9.48L8.4,2.72Zm3.48.08,1.08.72H9.72ZM12.12,2h2.16l-1.08.72ZM.8,2h.28l1.2.8H.8Zm13.72.8,1.2-.8H16v.8ZM18.8,21.88l-.72-1.08.72-1.08Zm0-9.6-.72-1.08.72-1.08Zm-.8.24.72,1.08L18,14.68Zm0-2.64V7.72l.72,1.08Zm0,7.44.72,1.08L18,19.48Zm.8-.242L18.08,16l.72-1.08ZM18.08,6.4l.72-1.08V7.48ZM18,5.08V4.4h.453ZM14.8,9.6v4H12.4v-4Zm-3.2,0v3.44l-.92-.909a.4.4,0,0,0-.28-.116H9.2V9.6Zm-3.2,0v.667H6V9.6Zm-6,12.566L3.434,23.2H1.366ZM6,23.2V11.067H8.4v1.35a.4.4,0,0,0,.4.4h1.436l1.484,1.468A.4.4,0,0,0,12,14.4h2.8v8.8Zm12-1.08.72,1.08H18Zm4.8.68a.4.4,0,1,1,.4-.4A.4.4,0,0,1,22.8,22.8ZM22,20.4a.4.4,0,1,1-.4.4A.4.4,0,0,1,22,20.4ZM21.2,22a.4.4,0,1,1-.4.4A.4.4,0,0,1,21.2,22ZM20,3.6H16.8V3.2h2a.4.4,0,0,0,.4-.4V.8H20Zm2.12-.8,1.08-.72V2.8Zm0,0" transform="translate(0 0)"/>
  </g>
</svg>
