<svg height="58" viewBox="0 0 167 58" width="167" xmlns="http://www.w3.org/2000/svg"><g fill="#ef5e4e" fill-rule="evenodd"><path d="m92.91 57.429h3.057v-19.854l-3.202.582v6.623a6.088 6.088 0 0 0 -4.076-1.572c-3.726 0-6.884 3.26-6.884 7.292s3.115 7.292 6.826 7.292c1.66 0 3.144-.67 4.28-1.775v1.412zm18.631-2.679-2.59-1.834c-.757 1.165-2.038 1.805-3.436 1.805-2.008 0-3.58-1.31-4.017-3.085h10.436c.058-.466.088-.874.088-1.369 0-4.017-2.766-7.059-6.769-7.059-4.25 0-7.146 3.26-7.146 7.292s3.144 7.292 7.38 7.292c2.517-.014 4.715-1.179 6.054-3.042zm10.931-8.194v-2.999c-.495-.087-.873-.145-1.368-.145-1.863 0-3.348.931-3.813 2.416v-2.416l-3.144.582v13.436h3.202v-10.874zm-49.153-.291c1.98 0 3.144 1.222 3.144 3.726v7.438h3.202v-7.875c0-3.464-1.863-6.36-5.633-6.36-1.746 0-3.26.67-4.395 1.775v-1.572l-3.057.583v13.449h3.202v-9.301c.743-1.136 1.994-1.863 3.537-1.863zm15.924 8.456c-2.33 0-4.163-1.892-4.163-4.22 0-2.33 1.834-4.222 4.163-4.222a4.12 4.12 0 0 1 3.522 1.98v4.483a4.12 4.12 0 0 1 -3.522 1.98zm15.996-8.602c1.834 0 3.115 1.165 3.435 2.911h-7.205c.422-1.688 1.761-2.91 3.77-2.91zm-44.481 11.311h3.202v-13.873h-3.202zm-13.857-19.71v19.708h3.348v-7.875h7.147v-3.231h-7.147v-5.371h8.107v-3.231zm15.429-.262c-1.165 0-2.154.96-2.154 2.154 0 1.193.99 2.183 2.154 2.183 1.193 0 2.212-.99 2.212-2.183 0-1.194-1.019-2.154-2.212-2.154zm49.007-2.65c4.105 0 7.089-2.415 7.089-6.36v-13.87l-3.057.582v.932c-1.135-1.077-2.62-1.718-4.25-1.718-3.697 0-6.826 3.202-6.826 7.176 0 3.973 3.144 7.176 6.884 7.176 1.543 0 2.94-.553 4.047-1.514v1.106c0 2.125-1.572 3.464-3.872 3.464-1.572 0-3.144-.67-4.396-1.426l-1.251 2.91c1.572.903 3.566 1.544 5.632 1.544zm32.531 0c4.105 0 7.089-2.415 7.089-6.36v-13.87l-3.057.582v.932c-1.135-1.077-2.62-1.718-4.25-1.718-3.697 0-6.826 3.202-6.826 7.176 0 3.973 3.144 7.176 6.884 7.176 1.543 0 2.94-.553 4.047-1.514v1.106c0 2.125-1.572 3.464-3.872 3.464-1.572 0-3.144-.67-4.396-1.426l-1.251 2.91c1.586.903 3.566 1.544 5.632 1.544zm-12.386-6.2h3.202v-14.016l-3.057.583v.96c-1.135-1.077-2.62-1.746-4.25-1.746-3.697 0-6.826 3.26-6.826 7.292 0 4.017 3.144 7.292 6.885 7.292 1.542 0 2.94-.582 4.046-1.543v1.18zm35.034-2.693-2.59-1.834c-.757 1.165-2.038 1.805-3.435 1.805-1.98 0-3.523-1.28-4.018-3.027h10.422c.058-.495.087-.903.087-1.427 0-4.017-2.765-7.059-6.768-7.059-4.25 0-7.147 3.26-7.147 7.292 0 4.018 3.144 7.292 7.38 7.292 2.547 0 4.73-1.178 6.07-3.042zm-74.042-8.194v-2.999c-.495-.087-.873-.145-1.368-.145-1.834 0-3.319.931-3.785 2.416v-2.416l-3.173.582v13.45h3.202v-10.874h5.124zm11.047 10.29-1.251-2.765c-.612.291-1.456.64-2.446.64-1.717 0-2.59-1.077-2.59-2.765v-5.4h5.574v-2.999h-5.575v-4.017l-3.173.582v11.834c0 3.551 1.95 5.836 5.662 5.836 1.587 0 2.897-.523 3.8-.946zm8.195-2.358c-2.329 0-4.163-1.834-4.163-4.104s1.834-4.105 4.163-4.105c1.455 0 2.765.757 3.493 1.863v4.483a4.208 4.208 0 0 1 -3.493 1.863zm-36.941.233c-2.213 0-3.988-1.834-3.988-4.22 0-2.388 1.775-4.222 3.988-4.222 2.183 0 3.988 1.834 3.988 4.221s-1.805 4.221-3.988 4.221zm53.2 0c-2.33 0-4.164-1.892-4.164-4.22 0-2.33 1.834-4.222 4.163-4.222a4.12 4.12 0 0 1 3.493 1.922v4.599c-.713 1.164-2.023 1.921-3.493 1.921zm16.272-.233c-2.329 0-4.163-1.834-4.163-4.104s1.834-4.105 4.163-4.105c1.455 0 2.765.757 3.493 1.863v4.483a4.208 4.208 0 0 1 -3.493 1.863zm15.982-8.34c1.863 0 3.114 1.165 3.435 2.882h-7.205c.407-1.645 1.76-2.882 3.77-2.882zm-105.424 6.624h2.416l4.541-8.922v13.594h3.392v-19.708h-3.814l-5.283 10.495-5.255-10.496h-3.9v19.71h3.347v-13.58l4.556 8.908zm19.97 5.021c3.959 0 7.234-3.202 7.234-7.292 0-4.075-3.26-7.292-7.234-7.292a7.252 7.252 0 0 0 -7.263 7.292 7.262 7.262 0 0 0 7.263 7.292z" fill-rule="nonzero"/><path d="m18.722 0c10.352 0 18.76 8.432 18.76 18.843 0 1.627-.209 3.201-.587 4.71a19.108 19.108 0 0 1 -1.92 4.711 18.582 18.582 0 0 1 -2.99 3.904c-3.394 3.41-8.08 5.518-13.25 5.518v-.247a19.845 19.845 0 0 0 -6.097-13.664 19.568 19.568 0 0 0 -12.638-5.453c.13-4.997 2.206-9.5 5.483-12.804a18.546 18.546 0 0 1 13.239-5.518zm-18.722 56.843c10.353 0 18.76-8.433 18.76-18.843h-18.76z"/></g></svg>