<svg xmlns="http://www.w3.org/2000/svg" width="24" height="20.516" viewBox="0 0 24 20.516">
  <g id="propertySize" transform="translate(-1 -6)" opacity="0.5">
    <path id="Path_60" data-name="Path 60" d="M28.893,53a.388.388,0,0,0-.387.389v.389H8.774v-.389a.387.387,0,1,0-.774,0v1.554a.387.387,0,1,0,.774,0v-.389H28.506v.389a.387.387,0,1,0,.774,0V53.389A.388.388,0,0,0,28.893,53Z" transform="translate(-4.28 -28.815)"/>
    <path id="Path_61" data-name="Path 61" d="M2.943,6.774a.387.387,0,1,0,0-.774H1.389a.387.387,0,1,0,0,.774h.389V23.023H1.389a.387.387,0,1,0,0,.774H2.943a.387.387,0,1,0,0-.774H2.554V6.774Z" transform="translate(0 0)"/>
    <path id="Path_62" data-name="Path 62" d="M28.893,14.124h-.774V6.387A.387.387,0,0,0,27.733,6H10.708a.387.387,0,0,0-.387.387V8.321a.387.387,0,0,0,.387.387h1.161V12.19H10.708a.387.387,0,0,0-.387.387v1.548H8.387A.387.387,0,0,0,8,14.511v8.9a.387.387,0,0,0,.387.387H28.893a.387.387,0,0,0,.387-.387v-8.9A.387.387,0,0,0,28.893,14.124ZM12.643,8.708H25.411V12.19H12.643ZM11.1,12.964H25.8a.387.387,0,0,0,.387-.387V8.321a.387.387,0,0,0-.387-.387H11.1V6.774h16.25v7.351H11.1Zm1.161,9.672V17.606h3.1v5.029Zm16.25.387H16.125v-5.8a.387.387,0,0,0-.387-.387H11.869a.387.387,0,0,0-.387.387v5.8H8.774V14.9H28.506Z" transform="translate(-4.28 0)"/>
    <path id="Path_63" data-name="Path 63" d="M36.108,34h-2.72a.389.389,0,0,0-.389.389v2.72a.389.389,0,0,0,.389.389h2.72a.389.389,0,0,0,.389-.389v-2.72A.389.389,0,0,0,36.108,34Zm-.389,2.72H33.777V34.777H35.72Z" transform="translate(-19.621 -17.17)"/>
    <path id="Path_64" data-name="Path 64" d="M47.108,34h-2.72a.389.389,0,0,0-.389.389v2.72a.389.389,0,0,0,.389.389h2.72a.389.389,0,0,0,.389-.389v-2.72A.389.389,0,0,0,47.108,34Zm-.389,2.72H44.777V34.777H46.72Z" transform="translate(-26.365 -17.17)"/>
    <path id="Path_65" data-name="Path 65" d="M24.5,14H21.389a.389.389,0,1,0,0,.777H24.5a.389.389,0,1,0,0-.777Z" transform="translate(-12.264 -4.597)"/>
    <path id="Path_66" data-name="Path 66" d="M32.777,14h-.389a.389.389,0,1,0,0,.777h.389a.389.389,0,1,0,0-.777Z" transform="translate(-19.002 -4.597)"/>
  </g>
</svg>
