<svg xmlns="http://www.w3.org/2000/svg" width="22.858" height="24" viewBox="0 0 22.858 24">
  <g id="propertyType" transform="translate(-12.186)" opacity="0.5">
    <g id="Group_71" data-name="Group 71" transform="translate(23.149 2.742)">
      <g id="Group_70" data-name="Group 70">
        <path id="Path_49" data-name="Path 49" d="M248.263,57.633h-1.368a.441.441,0,0,0-.441.441v1.642a.441.441,0,0,0,.441.441h1.368a.441.441,0,0,0,.441-.441V58.074A.441.441,0,0,0,248.263,57.633Zm-.255,1.827h-.858V58.329h.858Z" transform="translate(-246.454 -57.633)"/>
      </g>
    </g>
    <g id="Group_73" data-name="Group 73" transform="translate(25.825 2.742)">
      <g id="Group_72" data-name="Group 72">
        <path id="Path_50" data-name="Path 50" d="M305.436,57.633h-1.368a.441.441,0,0,0-.441.441v1.642a.441.441,0,0,0,.441.441h1.368a.441.441,0,0,0,.441-.441V58.074A.441.441,0,0,0,305.436,57.633Zm-.255,1.827h-.858V58.329h.858Z" transform="translate(-303.627 -57.633)"/>
      </g>
    </g>
    <g id="Group_75" data-name="Group 75" transform="translate(28.501 2.742)">
      <g id="Group_74" data-name="Group 74">
        <path id="Path_51" data-name="Path 51" d="M362.608,57.633H361.24a.441.441,0,0,0-.441.441v1.642a.441.441,0,0,0,.441.441h1.368a.441.441,0,0,0,.441-.441V58.074A.441.441,0,0,0,362.608,57.633Zm-.255,1.827H361.5V58.329h.858Z" transform="translate(-360.799 -57.633)"/>
      </g>
    </g>
    <g id="Group_77" data-name="Group 77" transform="translate(23.149 6.706)">
      <g id="Group_76" data-name="Group 76">
        <path id="Path_52" data-name="Path 52" d="M248.263,143.318h-1.368a.441.441,0,0,0-.441.441V145.4a.441.441,0,0,0,.441.441h1.368a.441.441,0,0,0,.441-.441v-1.642A.441.441,0,0,0,248.263,143.318Zm-.255,1.827h-.858v-1.131h.858Z" transform="translate(-246.454 -143.318)"/>
      </g>
    </g>
    <g id="Group_79" data-name="Group 79" transform="translate(25.825 6.706)">
      <g id="Group_78" data-name="Group 78">
        <path id="Path_53" data-name="Path 53" d="M305.436,143.318h-1.368a.441.441,0,0,0-.441.441V145.4a.441.441,0,0,0,.441.441h1.368a.441.441,0,0,0,.441-.441v-1.642A.441.441,0,0,0,305.436,143.318Zm-.255,1.827h-.858v-1.131h.858Z" transform="translate(-303.627 -143.318)"/>
      </g>
    </g>
    <g id="Group_81" data-name="Group 81" transform="translate(28.501 6.706)">
      <g id="Group_80" data-name="Group 80">
        <path id="Path_54" data-name="Path 54" d="M362.608,143.318H361.24a.441.441,0,0,0-.441.441V145.4a.441.441,0,0,0,.441.441h1.368a.441.441,0,0,0,.441-.441v-1.642A.441.441,0,0,0,362.608,143.318Zm-.255,1.827H361.5v-1.131h.858Z" transform="translate(-360.799 -143.318)"/>
      </g>
    </g>
    <g id="Group_83" data-name="Group 83" transform="translate(23.149 10.716)">
      <g id="Group_82" data-name="Group 82">
        <path id="Path_55" data-name="Path 55" d="M248.263,229.005h-1.368a.441.441,0,0,0-.441.441v1.642a.441.441,0,0,0,.441.441h1.368a.441.441,0,0,0,.441-.441v-1.642A.441.441,0,0,0,248.263,229.005Zm-.255,1.827h-.858V229.7h.858Z" transform="translate(-246.454 -229.005)"/>
      </g>
    </g>
    <g id="Group_85" data-name="Group 85" transform="translate(25.825 10.716)">
      <g id="Group_84" data-name="Group 84">
        <path id="Path_56" data-name="Path 56" d="M305.436,229.005h-1.368a.441.441,0,0,0-.441.441v1.642a.441.441,0,0,0,.441.441h1.368a.441.441,0,0,0,.441-.441v-1.642A.441.441,0,0,0,305.436,229.005Zm-.255,1.827h-.858V229.7h.858Z" transform="translate(-303.627 -229.005)"/>
      </g>
    </g>
    <g id="Group_87" data-name="Group 87" transform="translate(28.501 10.716)">
      <g id="Group_86" data-name="Group 86">
        <path id="Path_57" data-name="Path 57" d="M362.608,229.005H361.24a.441.441,0,0,0-.441.441v1.642a.441.441,0,0,0,.441.441h1.368a.441.441,0,0,0,.441-.441v-1.642A.441.441,0,0,0,362.608,229.005Zm-.255,1.827H361.5V229.7h.858Z" transform="translate(-360.799 -229.005)"/>
      </g>
    </g>
    <g id="Group_89" data-name="Group 89" transform="translate(28.501 14.725)">
      <g id="Group_88" data-name="Group 88">
        <path id="Path_58" data-name="Path 58" d="M362.608,314.692H361.24a.441.441,0,0,0-.441.441v1.642a.441.441,0,0,0,.441.441h1.368a.441.441,0,0,0,.441-.441v-1.642A.441.441,0,0,0,362.608,314.692Zm-.255,1.827H361.5v-1.131h.858Z" transform="translate(-360.799 -314.692)"/>
      </g>
    </g>
    <g id="Group_91" data-name="Group 91" transform="translate(12.186)">
      <g id="Group_90" data-name="Group 90" transform="translate(0)">
        <path id="Path_59" data-name="Path 59" d="M34.8,16.279a1.428,1.428,0,0,0-1.972-.381l-.943.631V1.78h.068a.451.451,0,0,0,.45-.45V.45a.451.451,0,0,0-.45-.45H29.762a.343.343,0,1,0,0,.686h1.954v.408H22.089V.686h5.526a.343.343,0,1,0,0-.686H21.854a.451.451,0,0,0-.45.45v.879a.451.451,0,0,0,.45.45h.174v4.4h-.7V5.337a.535.535,0,0,0-.534-.534H18.2a.535.535,0,0,0-.534.534v.846h-.493a.556.556,0,0,0-.555.555V14.6q-.218-.014-.437-.014h-.54v-.178A1.208,1.208,0,0,0,14.435,13.2H13.392a1.208,1.208,0,0,0-1.206,1.206v4.9a.343.343,0,0,0,.686,0v-4.9a.521.521,0,0,1,.521-.521h1.042a.521.521,0,0,1,.521.521v7.715a.521.521,0,0,1-.521.521H13.392a.521.521,0,0,1-.521-.521v-.673a.343.343,0,1,0-.686,0v.673a1.208,1.208,0,0,0,1.206,1.206h1.042a1.208,1.208,0,0,0,1.206-1.206V22.1l4.748,1.8.028.009a2.289,2.289,0,0,0,.624.089,2.149,2.149,0,0,0,.335-.026h0l7.008-1.01h.005a3.45,3.45,0,0,0,1.634-.732l.013-.011,4.529-4.074A1.428,1.428,0,0,0,34.8,16.279ZM22.713,1.78H31.2V16.988L28.345,18.9l-.956-.054-.024-.245a2.1,2.1,0,0,0-.118-.516q-.03-.082-.066-.16a2.076,2.076,0,0,0-.513-.685h.964a.435.435,0,0,0,.434-.434V15.185a.435.435,0,0,0-.434-.434H26.281a.435.435,0,0,0-.434.434V16.8a2.118,2.118,0,0,0-.267-.056h-.009l-.188-.022V15.185a.435.435,0,0,0-.434-.434H23.6a.435.435,0,0,0-.434.434v1.276l-.454-.052V1.78Zm3.82,14.772V15.437h.845v1.114ZM24.7,15.437v1.114h-.753l-.092-.011v-1.1ZM18.352,5.489h2.286v.695H18.352ZM17.3,6.869h4.724V7.941H18.156a.4.4,0,0,0-.4.4V9.379a.4.4,0,0,0,.4.4h3.872v.965H18.156a.4.4,0,0,0-.4.4v1.035a.4.4,0,0,0,.4.4h3.872v.965H18.156a.4.4,0,0,0-.4.4v.819l-.175-.038-.083-.017-.1-.018L17.3,14.68Zm4.724,1.758v.468H18.439V8.627Zm0,2.8V11.9H18.439v-.468ZM18.439,14.7v-.468h3.588V14.7Zm3.588.686v.942l-.106-.012a6.244,6.244,0,0,1-.655-.129,6.159,6.159,0,0,1-1.206-.443l-.153-.078q-.124-.065-.246-.136c-.06-.035-.12-.069-.181-.1l-.039-.021-.036-.02Zm12.081,2.246L29.584,21.7a2.763,2.763,0,0,1-1.3.581L21.276,23.3h-.009a1.538,1.538,0,0,1-.649-.041l-4.976-1.884v-6.1h.54a6.194,6.194,0,0,1,.742.045l.149.02.022,0q.188.028.373.067l.115.025.057.014.149.038.027.007a6.21,6.21,0,0,1,1.126.428l.032.016.137.071.041.022c.055.03.109.06.163.092h0q.219.128.444.239A6.855,6.855,0,0,0,21.83,17h.009l.492.057.4.046.925.106.229.026h0l1.6.184a1.4,1.4,0,0,1,1.193,1.247l.012.119-6.427-.626a.343.343,0,1,0-.067.683l6.813.664a.336.336,0,0,0,.044.006l1.364.077h.019l.02,0,.023,0,.029-.006.023-.005.03-.011.019-.007a.345.345,0,0,0,.046-.026l3.1-2.075h0l1.477-.988a.739.739,0,0,1,.9,1.167Z" transform="translate(-12.186 0)"/>
      </g>
    </g>
  </g>
</svg>
